<svg version="1.1" viewBox="0.0 0.0 600.0 371.0" fill="none" stroke="none" stroke-linecap="square" stroke-miterlimit="10" width="600" height="371" xmlns:xlink="http://www.w3.org/1999/xlink" xmlns="http://www.w3.org/2000/svg"><path fill="#002020" d="M0 0L600.0 0L600.0 371.0L0 371.0L0 0Z" fill-rule="nonzero"/><path stroke="#e0e4e4" stroke-width="1.0" stroke-linecap="butt" d="M54.5 331.5L581.5 331.5" fill-rule="nonzero"/><path stroke="#000000" stroke-width="1.0" stroke-linecap="butt" d="M54.5 262.5L581.5 262.5" fill-rule="nonzero"/><path stroke="#000000" stroke-width="1.0" stroke-linecap="butt" d="M54.5 193.5L581.5 193.5" fill-rule="nonzero"/><path stroke="#000000" stroke-width="1.0" stroke-linecap="butt" d="M54.5 124.5L581.5 124.5" fill-rule="nonzero"/><path stroke="#000000" stroke-width="1.0" stroke-linecap="butt" d="M54.5 55.5L581.5 55.5" fill-rule="nonzero"/><path stroke="#000000" stroke-width="1.0" stroke-linecap="butt" stroke-opacity="0.0" d="M54.5 308.5L581.5 308.5" fill-rule="nonzero"/><path stroke="#000000" stroke-width="1.0" stroke-linecap="butt" stroke-opacity="0.0" d="M54.5 285.5L581.5 285.5" fill-rule="nonzero"/><path stroke="#000000" stroke-width="1.0" stroke-linecap="butt" stroke-opacity="0.0" d="M54.5 239.5L581.5 239.5" fill-rule="nonzero"/><path stroke="#000000" stroke-width="1.0" stroke-linecap="butt" stroke-opacity="0.0" d="M54.5 216.5L581.5 216.5" fill-rule="nonzero"/><path stroke="#000000" stroke-width="1.0" stroke-linecap="butt" stroke-opacity="0.0" d="M54.5 170.5L581.5 170.5" fill-rule="nonzero"/><path stroke="#000000" stroke-width="1.0" stroke-linecap="butt" stroke-opacity="0.0" d="M54.5 147.5L581.5 147.5" fill-rule="nonzero"/><path stroke="#000000" stroke-width="1.0" stroke-linecap="butt" stroke-opacity="0.0" d="M54.5 101.5L581.5 101.5" fill-rule="nonzero"/><path stroke="#000000" stroke-width="1.0" stroke-linecap="butt" stroke-opacity="0.0" d="M54.5 78.5L581.5 78.5" fill-rule="nonzero"/><clipPath id="id_0"><path d="M54.55 55.416668L581.45 55.416668L581.45 331.45L54.55 331.45L54.55 55.416668Z" clip-rule="nonzero"/></clipPath><path stroke="#031c1c" stroke-width="2.0" stroke-linecap="butt" clip-path="url(#id_0)" d="M127.0 331.0L80.0 331.0L80.0 167.0L127.0 167.0Z" fill-rule="nonzero"/><path fill="#c9daf8" clip-path="url(#id_0)" d="M127.0 331.0L80.0 331.0L80.0 167.0L127.0 167.0Z" fill-rule="nonzero"/><path stroke="#031c1c" stroke-width="2.0" stroke-linecap="butt" clip-path="url(#id_0)" d="M199.0 331.0L152.0 331.0L152.0 182.0L199.0 182.0Z" fill-rule="nonzero"/><path fill="#c9daf8" clip-path="url(#id_0)" d="M199.0 331.0L152.0 331.0L152.0 182.0L199.0 182.0Z" fill-rule="nonzero"/><path stroke="#031c1c" stroke-width="2.0" stroke-linecap="butt" clip-path="url(#id_0)" d="M270.0 331.0L223.0 331.0L223.0 167.0L270.0 167.0Z" fill-rule="nonzero"/><path fill="#c9daf8" clip-path="url(#id_0)" d="M270.0 331.0L223.0 331.0L223.0 167.0L270.0 167.0Z" fill-rule="nonzero"/><path stroke="#031c1c" stroke-width="2.0" stroke-linecap="butt" clip-path="url(#id_0)" d="M342.0 331.0L295.0 331.0L295.0 247.0L342.0 247.0Z" fill-rule="nonzero"/><path fill="#c9daf8" clip-path="url(#id_0)" d="M342.0 331.0L295.0 331.0L295.0 247.0L342.0 247.0Z" fill-rule="nonzero"/><path stroke="#031c1c" stroke-width="2.0" stroke-linecap="butt" clip-path="url(#id_0)" d="M414.0 331.0L367.0 331.0L367.0 115.0L414.0 115.0Z" fill-rule="nonzero"/><path fill="#c9daf8" clip-path="url(#id_0)" d="M414.0 331.0L367.0 331.0L367.0 115.0L414.0 115.0Z" fill-rule="nonzero"/><path stroke="#031c1c" stroke-width="2.0" stroke-linecap="butt" clip-path="url(#id_0)" d="M485.0 331.0L438.0 331.0L438.0 122.0L485.0 122.0Z" fill-rule="nonzero"/><path fill="#c9daf8" clip-path="url(#id_0)" d="M485.0 331.0L438.0 331.0L438.0 122.0L485.0 122.0Z" fill-rule="nonzero"/><path stroke="#031c1c" stroke-width="2.0" stroke-linecap="butt" clip-path="url(#id_0)" d="M557.0 331.0L510.0 331.0L510.0 242.0L557.0 242.0Z" fill-rule="nonzero"/><path fill="#c9daf8" clip-path="url(#id_0)" d="M557.0 331.0L510.0 331.0L510.0 242.0L557.0 242.0Z" fill-rule="nonzero"/><path stroke="#031c1c" stroke-width="2.0" stroke-linecap="butt" clip-path="url(#id_0)" d="M127.0 167.0L80.0 167.0L80.0 70.0L127.0 70.0Z" fill-rule="nonzero"/><path fill="#e39191" clip-path="url(#id_0)" d="M127.0 167.0L80.0 167.0L80.0 70.0L127.0 70.0Z" fill-rule="nonzero"/><path stroke="#031c1c" stroke-width="2.0" stroke-linecap="butt" clip-path="url(#id_0)" d="M199.0 182.0L152.0 182.0L152.0 100.0L199.0 100.0Z" fill-rule="nonzero"/><path fill="#e39191" clip-path="url(#id_0)" d="M199.0 182.0L152.0 182.0L152.0 100.0L199.0 100.0Z" fill-rule="nonzero"/><path stroke="#031c1c" stroke-width="2.0" stroke-linecap="butt" clip-path="url(#id_0)" d="M270.0 167.0L223.0 167.0L223.0 145.0L270.0 145.0Z" fill-rule="nonzero"/><path fill="#e39191" clip-path="url(#id_0)" d="M270.0 167.0L223.0 167.0L223.0 145.0L270.0 145.0Z" fill-rule="nonzero"/><path stroke="#031c1c" stroke-width="2.0" stroke-linecap="butt" clip-path="url(#id_0)" d="M342.0 247.0L295.0 247.0L295.0 185.0L342.0 185.0Z" fill-rule="nonzero"/><path fill="#e39191" clip-path="url(#id_0)" d="M342.0 247.0L295.0 247.0L295.0 185.0L342.0 185.0Z" fill-rule="nonzero"/><path stroke="#031c1c" stroke-width="2.0" stroke-linecap="butt" clip-path="url(#id_0)" d="M414.0 115.0L367.0 115.0L367.0 93.0L414.0 93.0Z" fill-rule="nonzero"/><path fill="#e39191" clip-path="url(#id_0)" d="M414.0 115.0L367.0 115.0L367.0 93.0L414.0 93.0Z" fill-rule="nonzero"/><path stroke="#031c1c" stroke-width="2.0" stroke-linecap="butt" clip-path="url(#id_0)" d="M485.0 122.0L438.0 122.0L438.0 100.0L485.0 100.0Z" fill-rule="nonzero"/><path fill="#e39191" clip-path="url(#id_0)" d="M485.0 122.0L438.0 122.0L438.0 100.0L485.0 100.0Z" fill-rule="nonzero"/><path stroke="#031c1c" stroke-width="2.0" stroke-linecap="butt" clip-path="url(#id_0)" d="M557.0 242.0L510.0 242.0L510.0 190.0L557.0 190.0Z" fill-rule="nonzero"/><path fill="#e39191" clip-path="url(#id_0)" d="M557.0 242.0L510.0 242.0L510.0 190.0L557.0 190.0Z" fill-rule="nonzero"/><path stroke="#031c1c" stroke-width="2.0" stroke-linecap="butt" clip-path="url(#id_0)" d="M127.0 70.0L80.0 70.0L80.0 57.0C80.0 55.89543 80.89543 55.0 82.0 55.0L125.0 55.0C126.10457 55.0 127.0 55.89543 127.0 57.0Z" fill-rule="nonzero"/><path fill="#e4b888" clip-path="url(#id_0)" d="M127.0 70.0L80.0 70.0L80.0 57.0C80.0 55.89543 80.89543 55.0 82.0 55.0L125.0 55.0C126.10457 55.0 127.0 55.89543 127.0 57.0Z" fill-rule="nonzero"/><path stroke="#031c1c" stroke-width="2.0" stroke-linecap="butt" clip-path="url(#id_0)" d="M199.0 100.0L152.0 100.0L152.0 57.0C152.0 55.89543 152.89543 55.0 154.0 55.0L197.0 55.0C198.10457 55.0 199.0 55.89543 199.0 57.0Z" fill-rule="nonzero"/><path fill="#e4b888" clip-path="url(#id_0)" d="M199.0 100.0L152.0 100.0L152.0 57.0C152.0 55.89543 152.89543 55.0 154.0 55.0L197.0 55.0C198.10457 55.0 199.0 55.89543 199.0 57.0Z" fill-rule="nonzero"/><path stroke="#031c1c" stroke-width="2.0" stroke-linecap="butt" clip-path="url(#id_0)" d="M270.0 145.0L223.0 145.0L223.0 57.0C223.0 55.89543 223.89543 55.0 225.0 55.0L268.0 55.0C269.10458 55.0 270.0 55.89543 270.0 57.0Z" fill-rule="nonzero"/><path fill="#e4b888" clip-path="url(#id_0)" d="M270.0 145.0L223.0 145.0L223.0 57.0C223.0 55.89543 223.89543 55.0 225.0 55.0L268.0 55.0C269.10458 55.0 270.0 55.89543 270.0 57.0Z" fill-rule="nonzero"/><path stroke="#031c1c" stroke-width="2.0" stroke-linecap="butt" clip-path="url(#id_0)" d="M342.0 185.0L295.0 185.0L295.0 57.0C295.0 55.89543 295.89542 55.0 297.0 55.0L340.0 55.0C341.10458 55.0 342.0 55.89543 342.0 57.0Z" fill-rule="nonzero"/><path fill="#e4b888" clip-path="url(#id_0)" d="M342.0 185.0L295.0 185.0L295.0 57.0C295.0 55.89543 295.89542 55.0 297.0 55.0L340.0 55.0C341.10458 55.0 342.0 55.89543 342.0 57.0Z" fill-rule="nonzero"/><path stroke="#031c1c" stroke-width="2.0" stroke-linecap="butt" clip-path="url(#id_0)" d="M414.0 93.0L367.0 93.0L367.0 57.0C367.0 55.89543 367.89542 55.0 369.0 55.0L412.0 55.0C413.10458 55.0 414.0 55.89543 414.0 57.0Z" fill-rule="nonzero"/><path fill="#e4b888" clip-path="url(#id_0)" d="M414.0 93.0L367.0 93.0L367.0 57.0C367.0 55.89543 367.89542 55.0 369.0 55.0L412.0 55.0C413.10458 55.0 414.0 55.89543 414.0 57.0Z" fill-rule="nonzero"/><path stroke="#031c1c" stroke-width="2.0" stroke-linecap="butt" clip-path="url(#id_0)" d="M485.0 100.0L438.0 100.0L438.0 57.0C438.0 55.89543 438.89542 55.0 440.0 55.0L483.0 55.0C484.10458 55.0 485.0 55.89543 485.0 57.0Z" fill-rule="nonzero"/><path fill="#e4b888" clip-path="url(#id_0)" d="M485.0 100.0L438.0 100.0L438.0 57.0C438.0 55.89543 438.89542 55.0 440.0 55.0L483.0 55.0C484.10458 55.0 485.0 55.89543 485.0 57.0Z" fill-rule="nonzero"/><path stroke="#000000" stroke-width="2.0" stroke-linecap="butt" stroke-opacity="0.0" clip-path="url(#id_0)" d="M557.0 190.0L510.0 190.0L510.0 57.0C510.0 55.89543 510.89542 55.0 512.0 55.0L555.0 55.0C556.10455 55.0 557.0 55.89543 557.0 57.0Z" fill-rule="nonzero"/><path fill="#e4b888" clip-path="url(#id_0)" d="M557.0 190.0L510.0 190.0L510.0 57.0C510.0 55.89543 510.89542 55.0 512.0 55.0L555.0 55.0C556.10455 55.0 557.0 55.89543 557.0 57.0Z" fill-rule="nonzero"/><path fill="#f3f3f3" d="M38.6125 332.3094Q38.6125 334.21564 37.95625 335.15314Q37.315624 336.075 35.925 336.075Q34.565624 336.075 33.909374 335.16876Q33.253124 334.2625 33.221874 332.45L33.221874 331.0125Q33.221874 329.1219 33.8625 328.21564Q34.51875 327.29376 35.909374 327.29376Q37.284374 327.29376 37.940624 328.1844Q38.596874 329.0594 38.6125 330.90314L38.6125 332.3094ZM37.51875 330.825Q37.51875 329.45 37.128124 328.825Q36.753124 328.1844 35.909374 328.1844Q35.08125 328.1844 34.690624 328.825Q34.315624 329.45 34.315624 330.7469L34.315624 332.48126Q34.315624 333.85626 34.70625 334.52814Q35.1125 335.1844 35.925 335.1844Q36.721874 335.1844 37.1125 334.5594Q37.503124 333.9344 37.51875 332.60626L37.51875 330.825ZM40.159374 329.0594Q40.159374 328.29376 40.64375 327.79376Q41.14375 327.29376 41.909374 327.29376Q42.690624 327.29376 43.175 327.79376Q43.659374 328.29376 43.659374 329.09064L43.659374 329.5125Q43.659374 330.27814 43.159374 330.77814Q42.675 331.2625 41.925 331.2625Q41.159374 331.2625 40.659374 330.77814Q40.159374 330.27814 40.159374 329.46564L40.159374 329.0594ZM40.971874 329.5125Q40.971874 329.96564 41.221874 330.2625Q41.4875 330.5594 41.925 330.5594Q42.346874 330.5594 42.596874 330.27814Q42.846874 329.98126 42.846874 329.48126L42.846874 329.0594Q42.846874 328.60626 42.596874 328.3094Q42.346874 327.9969 41.909374 327.9969Q41.471874 327.9969 41.221874 328.3094Q40.971874 328.60626 40.971874 329.075L40.971874 329.5125ZM44.315624 333.85626Q44.315624 333.09064 44.8 332.60626Q45.3 332.10626 46.065624 332.10626Q46.83125 332.10626 47.315624 332.60626Q47.815624 333.09064 47.815624 333.90314L47.815624 334.3094Q47.815624 335.075 47.33125 335.575Q46.846874 336.075 46.08125 336.075Q45.315624 336.075 44.815624 335.59064Q44.315624 335.09064 44.315624 334.27814L44.315624 333.85626ZM45.128124 334.3094Q45.128124 334.77814 45.378124 335.075Q45.64375 335.3719 46.08125 335.3719Q46.503124 335.3719 46.753124 335.09064Q47.003124 334.79376 47.003124 334.29376L47.003124 333.85626Q47.003124 333.3875 46.7375 333.10626Q46.4875 332.8094 46.065624 332.8094Q45.64375 332.8094 45.378124 333.10626Q45.128124 333.3875 45.128124 333.8875L45.128124 334.3094ZM42.175 335.3094L41.55 334.91876L45.721874 328.2469L46.33125 328.6375L42.175 335.3094Z" fill-rule="nonzero"/><path fill="#f3f3f3" d="M31.846874 266.94168L26.253124 266.94168L26.253124 266.16043L29.20625 262.87918Q29.8625 262.12918 30.1125 261.67606Q30.3625 261.2073 30.3625 260.7073Q30.3625 260.03543 29.95625 259.61356Q29.565624 259.17606 28.878124 259.17606Q28.08125 259.17606 27.628124 259.6448Q27.175 260.09793 27.175 260.92606L26.096874 260.92606Q26.096874 259.73856 26.846874 259.0198Q27.6125 258.28543 28.878124 258.28543Q30.08125 258.28543 30.76875 258.91043Q31.45625 259.53543 31.45625 260.5823Q31.45625 261.8323 29.846874 263.5823L27.565624 266.05106L31.846874 266.05106L31.846874 266.94168ZM33.753124 262.66043L34.190624 258.41043L38.565624 258.41043L38.565624 259.41043L35.1125 259.41043L34.846874 261.73856Q35.4875 261.36356 36.284374 261.36356Q37.440624 261.36356 38.128124 262.1448Q38.815624 262.91043 38.815624 264.22293Q38.815624 265.53543 38.096874 266.30106Q37.39375 267.06668 36.1125 267.06668Q34.9875 267.06668 34.26875 266.44168Q33.55 265.80106 33.45625 264.69168L34.471874 264.69168Q34.58125 265.42606 35.003124 265.80106Q35.425 266.17606 36.1125 266.17606Q36.8625 266.17606 37.3 265.66043Q37.7375 265.1448 37.7375 264.23856Q37.7375 263.37918 37.26875 262.86356Q36.8 262.34793 36.01875 262.34793Q35.315624 262.34793 34.909374 262.6448L34.628124 262.87918L33.753124 262.66043ZM40.159374 260.05106Q40.159374 259.28543 40.64375 258.78543Q41.14375 258.28543 41.909374 258.28543Q42.690624 258.28543 43.175 258.78543Q43.659374 259.28543 43.659374 260.0823L43.659374 260.50418Q43.659374 261.2698 43.159374 261.7698Q42.675 262.25418 41.925 262.25418Q41.159374 262.25418 40.659374 261.7698Q40.159374 261.2698 40.159374 260.4573L40.159374 260.05106ZM40.971874 260.50418Q40.971874 260.9573 41.221874 261.25418Q41.4875 261.55106 41.925 261.55106Q42.346874 261.55106 42.596874 261.2698Q42.846874 260.97293 42.846874 260.47293L42.846874 260.05106Q42.846874 259.59793 42.596874 259.30106Q42.346874 258.98856 41.909374 258.98856Q41.471874 258.98856 41.221874 259.30106Q40.971874 259.59793 40.971874 260.06668L40.971874 260.50418ZM44.315624 264.84793Q44.315624 264.0823 44.8 263.59793Q45.3 263.09793 46.065624 263.09793Q46.83125 263.09793 47.315624 263.59793Q47.815624 264.0823 47.815624 264.8948L47.815624 265.30106Q47.815624 266.06668 47.33125 266.56668Q46.846874 267.06668 46.08125 267.06668Q45.315624 267.06668 44.815624 266.5823Q44.315624 266.0823 44.315624 265.2698L44.315624 264.84793ZM45.128124 265.30106Q45.128124 265.7698 45.378124 266.06668Q45.64375 266.36356 46.08125 266.36356Q46.503124 266.36356 46.753124 266.0823Q47.003124 265.78543 47.003124 265.28543L47.003124 264.84793Q47.003124 264.37918 46.7375 264.09793Q46.4875 263.80106 46.065624 263.80106Q45.64375 263.80106 45.378124 264.09793Q45.128124 264.37918 45.128124 264.87918L45.128124 265.30106ZM42.175 266.30106L41.55 265.91043L45.721874 259.23856L46.33125 259.62918L42.175 266.30106Z" fill-rule="nonzero"/><path fill="#f3f3f3" d="M26.753124 193.65208L27.190624 189.40208L31.565624 189.40208L31.565624 190.40208L28.1125 190.40208L27.846874 192.73021Q28.4875 192.35521 29.284374 192.35521Q30.440624 192.35521 31.128124 193.13646Q31.815624 193.90208 31.815624 195.21458Q31.815624 196.52708 31.096874 197.29271Q30.39375 198.05833 29.1125 198.05833Q27.9875 198.05833 27.26875 197.43333Q26.55 196.79271 26.45625 195.68333L27.471874 195.68333Q27.58125 196.41771 28.003124 196.79271Q28.425 197.16771 29.1125 197.16771Q29.8625 197.16771 30.3 196.65208Q30.7375 196.13646 30.7375 195.23021Q30.7375 194.37083 30.26875 193.85521Q29.8 193.33958 29.01875 193.33958Q28.315624 193.33958 27.909374 193.63646L27.628124 193.87083L26.753124 193.65208ZM38.6125 194.29271Q38.6125 196.19896 37.95625 197.13646Q37.315624 198.05833 35.925 198.05833Q34.565624 198.05833 33.909374 197.15208Q33.253124 196.24583 33.221874 194.43333L33.221874 192.99583Q33.221874 191.10521 33.8625 190.19896Q34.51875 189.27708 35.909374 189.27708Q37.284374 189.27708 37.940624 190.16771Q38.596874 191.04271 38.6125 192.88646L38.6125 194.29271ZM37.51875 192.80833Q37.51875 191.43333 37.128124 190.80833Q36.753124 190.16771 35.909374 190.16771Q35.08125 190.16771 34.690624 190.80833Q34.315624 191.43333 34.315624 192.73021L34.315624 194.46458Q34.315624 195.83958 34.70625 196.51146Q35.1125 197.16771 35.925 197.16771Q36.721874 197.16771 37.1125 196.54271Q37.503124 195.91771 37.51875 194.58958L37.51875 192.80833ZM40.159374 191.04271Q40.159374 190.27708 40.64375 189.77708Q41.14375 189.27708 41.909374 189.27708Q42.690624 189.27708 43.175 189.77708Q43.659374 190.27708 43.659374 191.07396L43.659374 191.49583Q43.659374 192.26146 43.159374 192.76146Q42.675 193.24583 41.925 193.24583Q41.159374 193.24583 40.659374 192.76146Q40.159374 192.26146 40.159374 191.44896L40.159374 191.04271ZM40.971874 191.49583Q40.971874 191.94896 41.221874 192.24583Q41.4875 192.54271 41.925 192.54271Q42.346874 192.54271 42.596874 192.26146Q42.846874 191.96458 42.846874 191.46458L42.846874 191.04271Q42.846874 190.58958 42.596874 190.29271Q42.346874 189.98021 41.909374 189.98021Q41.471874 189.98021 41.221874 190.29271Q40.971874 190.58958 40.971874 191.05833L40.971874 191.49583ZM44.315624 195.83958Q44.315624 195.07396 44.8 194.58958Q45.3 194.08958 46.065624 194.08958Q46.83125 194.08958 47.315624 194.58958Q47.815624 195.07396 47.815624 195.88646L47.815624 196.29271Q47.815624 197.05833 47.33125 197.55833Q46.846874 198.05833 46.08125 198.05833Q45.315624 198.05833 44.815624 197.57396Q44.315624 197.07396 44.315624 196.26146L44.315624 195.83958ZM45.128124 196.29271Q45.128124 196.76146 45.378124 197.05833Q45.64375 197.35521 46.08125 197.35521Q46.503124 197.35521 46.753124 197.07396Q47.003124 196.77708 47.003124 196.27708L47.003124 195.83958Q47.003124 195.37083 46.7375 195.08958Q46.4875 194.79271 46.065624 194.79271Q45.64375 194.79271 45.378124 195.08958Q45.128124 195.37083 45.128124 195.87083L45.128124 196.29271ZM42.175 197.29271L41.55 196.90208L45.721874 190.23021L46.33125 190.62083L42.175 197.29271Z" fill-rule="nonzero"/><path fill="#f3f3f3" d="M31.76875 121.00313L28.2375 128.925L27.096874 128.925L30.6125 121.28438L26.003124 121.28438L26.003124 120.39375L31.76875 120.39375L31.76875 121.00313ZM33.753124 124.64375L34.190624 120.39375L38.565624 120.39375L38.565624 121.39375L35.1125 121.39375L34.846874 123.72188Q35.4875 123.34688 36.284374 123.34688Q37.440624 123.34688 38.128124 124.12813Q38.815624 124.89375 38.815624 126.20625Q38.815624 127.51875 38.096874 128.28438Q37.39375 129.05 36.1125 129.05Q34.9875 129.05 34.26875 128.425Q33.55 127.78438 33.45625 126.675L34.471874 126.675Q34.58125 127.40938 35.003124 127.78438Q35.425 128.15938 36.1125 128.15938Q36.8625 128.15938 37.3 127.64375Q37.7375 127.12813 37.7375 126.22188Q37.7375 125.3625 37.26875 124.84688Q36.8 124.33125 36.01875 124.33125Q35.315624 124.33125 34.909374 124.62813L34.628124 124.8625L33.753124 124.64375ZM40.159374 122.03438Q40.159374 121.26875 40.64375 120.76875Q41.14375 120.26875 41.909374 120.26875Q42.690624 120.26875 43.175 120.76875Q43.659374 121.26875 43.659374 122.06563L43.659374 122.4875Q43.659374 123.25313 43.159374 123.75313Q42.675 124.2375 41.925 124.2375Q41.159374 124.2375 40.659374 123.75313Q40.159374 123.25313 40.159374 122.44063L40.159374 122.03438ZM40.971874 122.4875Q40.971874 122.94063 41.221874 123.2375Q41.4875 123.53438 41.925 123.53438Q42.346874 123.53438 42.596874 123.25313Q42.846874 122.95625 42.846874 122.45625L42.846874 122.03438Q42.846874 121.58125 42.596874 121.28438Q42.346874 120.97188 41.909374 120.97188Q41.471874 120.97188 41.221874 121.28438Q40.971874 121.58125 40.971874 122.05L40.971874 122.4875ZM44.315624 126.83125Q44.315624 126.06563 44.8 125.58125Q45.3 125.08125 46.065624 125.08125Q46.83125 125.08125 47.315624 125.58125Q47.815624 126.06563 47.815624 126.87813L47.815624 127.28438Q47.815624 128.05 47.33125 128.55Q46.846874 129.05 46.08125 129.05Q45.315624 129.05 44.815624 128.56563Q44.315624 128.06563 44.315624 127.25313L44.315624 126.83125ZM45.128124 127.28438Q45.128124 127.75313 45.378124 128.05Q45.64375 128.34688 46.08125 128.34688Q46.503124 128.34688 46.753124 128.06563Q47.003124 127.76875 47.003124 127.26875L47.003124 126.83125Q47.003124 126.3625 46.7375 126.08125Q46.4875 125.78438 46.065624 125.78438Q45.64375 125.78438 45.378124 126.08125Q45.128124 126.3625 45.128124 126.8625L45.128124 127.28438ZM42.175 128.28438L41.55 127.89375L45.721874 121.22188L46.33125 121.6125L42.175 128.28438Z" fill-rule="nonzero"/><path fill="#f3f3f3" d="M22.815624 59.916668L21.7375 59.916668L21.7375 52.697918L19.55 53.494793L19.55 52.510418L22.659374 51.338543L22.815624 51.338543L22.815624 59.916668ZM31.6125 56.276043Q31.6125 58.182293 30.95625 59.119793Q30.315624 60.041668 28.925 60.041668Q27.565624 60.041668 26.909374 59.135418Q26.253124 58.229168 26.221874 56.416668L26.221874 54.979168Q26.221874 53.088543 26.8625 52.182293Q27.51875 51.260418 28.909374 51.260418Q30.284374 51.260418 30.940624 52.151043Q31.596874 53.026043 31.6125 54.869793L31.6125 56.276043ZM30.51875 54.791668Q30.51875 53.416668 30.128124 52.791668Q29.753124 52.151043 28.909374 52.151043Q28.08125 52.151043 27.690624 52.791668Q27.315624 53.416668 27.315624 54.713543L27.315624 56.447918Q27.315624 57.822918 27.70625 58.494793Q28.1125 59.151043 28.925 59.151043Q29.721874 59.151043 30.1125 58.526043Q30.503124 57.901043 30.51875 56.572918L30.51875 54.791668ZM38.6125 56.276043Q38.6125 58.182293 37.95625 59.119793Q37.315624 60.041668 35.925 60.041668Q34.565624 60.041668 33.909374 59.135418Q33.253124 58.229168 33.221874 56.416668L33.221874 54.979168Q33.221874 53.088543 33.8625 52.182293Q34.51875 51.260418 35.909374 51.260418Q37.284374 51.260418 37.940624 52.151043Q38.596874 53.026043 38.6125 54.869793L38.6125 56.276043ZM37.51875 54.791668Q37.51875 53.416668 37.128124 52.791668Q36.753124 52.151043 35.909374 52.151043Q35.08125 52.151043 34.690624 52.791668Q34.315624 53.416668 34.315624 54.713543L34.315624 56.447918Q34.315624 57.822918 34.70625 58.494793Q35.1125 59.151043 35.925 59.151043Q36.721874 59.151043 37.1125 58.526043Q37.503124 57.901043 37.51875 56.572918L37.51875 54.791668ZM40.159374 53.026043Q40.159374 52.260418 40.64375 51.760418Q41.14375 51.260418 41.909374 51.260418Q42.690624 51.260418 43.175 51.760418Q43.659374 52.260418 43.659374 53.057293L43.659374 53.479168Q43.659374 54.244793 43.159374 54.744793Q42.675 55.229168 41.925 55.229168Q41.159374 55.229168 40.659374 54.744793Q40.159374 54.244793 40.159374 53.432293L40.159374 53.026043ZM40.971874 53.479168Q40.971874 53.932293 41.221874 54.229168Q41.4875 54.526043 41.925 54.526043Q42.346874 54.526043 42.596874 54.244793Q42.846874 53.947918 42.846874 53.447918L42.846874 53.026043Q42.846874 52.572918 42.596874 52.276043Q42.346874 51.963543 41.909374 51.963543Q41.471874 51.963543 41.221874 52.276043Q40.971874 52.572918 40.971874 53.041668L40.971874 53.479168ZM44.315624 57.822918Q44.315624 57.057293 44.8 56.572918Q45.3 56.072918 46.065624 56.072918Q46.83125 56.072918 47.315624 56.572918Q47.815624 57.057293 47.815624 57.869793L47.815624 58.276043Q47.815624 59.041668 47.33125 59.541668Q46.846874 60.041668 46.08125 60.041668Q45.315624 60.041668 44.815624 59.557293Q44.315624 59.057293 44.315624 58.244793L44.315624 57.822918ZM45.128124 58.276043Q45.128124 58.744793 45.378124 59.041668Q45.64375 59.338543 46.08125 59.338543Q46.503124 59.338543 46.753124 59.057293Q47.003124 58.760418 47.003124 58.260418L47.003124 57.822918Q47.003124 57.354168 46.7375 57.072918Q46.4875 56.776043 46.065624 56.776043Q45.64375 56.776043 45.378124 57.072918Q45.128124 57.354168 45.128124 57.854168L45.128124 58.276043ZM42.175 59.276043L41.55 58.885418L45.721874 52.213543L46.33125 52.604168L42.175 59.276043Z" fill-rule="nonzero"/><path fill="#f3f3f3" d="M102.938774 345.46564Q102.938774 346.7 102.54815 347.59064Q102.157524 348.48126 101.4544 348.98126L102.970024 350.1844L102.2044 350.8875L100.407524 349.46564Q99.98565 349.575 99.5169 349.575Q98.5169 349.575 97.73565 349.075Q96.9544 348.575 96.5169 347.66876Q96.095024 346.7469 96.0794 345.52814L96.0794 344.91876Q96.0794 343.6844 96.501274 342.7469Q96.938774 341.8094 97.720024 341.3094Q98.501274 340.79376 99.501274 340.79376Q100.532524 340.79376 101.313774 341.29376Q102.095024 341.79376 102.5169 342.73126Q102.938774 343.66876 102.938774 344.91876L102.938774 345.46564ZM101.813774 344.90314Q101.813774 343.40314 101.220024 342.59064Q100.626274 341.7625 99.501274 341.7625Q98.438774 341.7625 97.8294 342.575Q97.220024 343.3875 97.2044 344.825L97.2044 345.46564Q97.2044 346.91876 97.813774 347.7625Q98.42315 348.60626 99.5169 348.60626Q100.61065 348.60626 101.2044 347.825Q101.79815 347.02814 101.813774 345.54376L101.813774 344.90314ZM107.7044 349.45L106.626274 349.45L106.626274 342.23126L104.438774 343.02814L104.438774 342.04376L107.54815 340.8719L107.7044 340.8719L107.7044 349.45Z" fill-rule="nonzero"/><path fill="#f3f3f3" d="M174.62585 345.46564Q174.62585 346.7 174.23523 347.59064Q173.8446 348.48126 173.14148 348.98126L174.6571 350.1844L173.89148 350.8875L172.0946 349.46564Q171.67273 349.575 171.20398 349.575Q170.20398 349.575 169.42273 349.075Q168.64148 348.575 168.20398 347.66876Q167.7821 346.7469 167.76648 345.52814L167.76648 344.91876Q167.76648 343.6844 168.18835 342.7469Q168.62585 341.8094 169.4071 341.3094Q170.18835 340.79376 171.18835 340.79376Q172.2196 340.79376 173.00085 341.29376Q173.7821 341.79376 174.20398 342.73126Q174.62585 343.66876 174.62585 344.91876L174.62585 345.46564ZM173.50085 344.90314Q173.50085 343.40314 172.9071 342.59064Q172.31335 341.7625 171.18835 341.7625Q170.12585 341.7625 169.51648 342.575Q168.9071 343.3875 168.89148 344.825L168.89148 345.46564Q168.89148 346.91876 169.50085 347.7625Q170.11023 348.60626 171.20398 348.60626Q172.29773 348.60626 172.89148 347.825Q173.48523 347.02814 173.50085 345.54376L173.50085 344.90314ZM181.42273 349.45L175.82898 349.45L175.82898 348.66876L178.7821 345.3875Q179.43835 344.6375 179.68835 344.1844Q179.93835 343.71564 179.93835 343.21564Q179.93835 342.54376 179.5321 342.1219Q179.14148 341.6844 178.45398 341.6844Q177.6571 341.6844 177.20398 342.15314Q176.75085 342.60626 176.75085 343.4344L175.67273 343.4344Q175.67273 342.2469 176.42273 341.52814Q177.18835 340.79376 178.45398 340.79376Q179.6571 340.79376 180.3446 341.41876Q181.0321 342.04376 181.0321 343.09064Q181.0321 344.34064 179.42273 346.09064L177.14148 348.5594L181.42273 348.5594L181.42273 349.45Z" fill-rule="nonzero"/><path fill="#f3f3f3" d="M246.31293 345.46564Q246.31293 346.7 245.9223 347.59064Q245.53168 348.48126 244.82855 348.98126L246.34418 350.1844L245.57855 350.8875L243.78168 349.46564Q243.3598 349.575 242.89105 349.575Q241.89105 349.575 241.1098 349.075Q240.32855 348.575 239.89105 347.66876Q239.46918 346.7469 239.45355 345.52814L239.45355 344.91876Q239.45355 343.6844 239.87543 342.7469Q240.31293 341.8094 241.09418 341.3094Q241.87543 340.79376 242.87543 340.79376Q243.90668 340.79376 244.68793 341.29376Q245.46918 341.79376 245.89105 342.73126Q246.31293 343.66876 246.31293 344.91876L246.31293 345.46564ZM245.18793 344.90314Q245.18793 343.40314 244.59418 342.59064Q244.00043 341.7625 242.87543 341.7625Q241.81293 341.7625 241.20355 342.575Q240.59418 343.3875 240.57855 344.825L240.57855 345.46564Q240.57855 346.91876 241.18793 347.7625Q241.7973 348.60626 242.89105 348.60626Q243.9848 348.60626 244.57855 347.825Q245.1723 347.02814 245.18793 345.54376L245.18793 344.90314ZM249.09418 344.65314L249.90668 344.65314Q250.68793 344.6375 251.12543 344.2469Q251.56293 343.85626 251.56293 343.1844Q251.56293 341.6844 250.06293 341.6844Q249.3598 341.6844 248.93793 342.09064Q248.53168 342.4969 248.53168 343.15314L247.43793 343.15314Q247.43793 342.1375 248.1723 341.46564Q248.9223 340.79376 250.06293 340.79376Q251.26605 340.79376 251.95355 341.4344Q252.64105 342.075 252.64105 343.21564Q252.64105 343.77814 252.28168 344.29376Q251.9223 344.8094 251.2973 345.075Q252.00043 345.29376 252.37543 345.8094Q252.76605 346.325 252.76605 347.075Q252.76605 348.21564 252.01605 348.90314Q251.26605 349.575 250.06293 349.575Q248.87543 349.575 248.1098 348.91876Q247.3598 348.2625 247.3598 347.2L248.45355 347.2Q248.45355 347.8719 248.89105 348.27814Q249.32855 348.6844 250.07855 348.6844Q250.8598 348.6844 251.26605 348.27814Q251.68793 347.85626 251.68793 347.09064Q251.68793 346.35626 251.2348 345.96564Q250.78168 345.5594 249.90668 345.54376L249.09418 345.54376L249.09418 344.65314Z" fill-rule="nonzero"/><path fill="#f3f3f3" d="M318.0 345.46564Q318.0 346.7 317.60938 347.59064Q317.21875 348.48126 316.51562 348.98126L318.03125 350.1844L317.26562 350.8875L315.46875 349.46564Q315.04688 349.575 314.57812 349.575Q313.57812 349.575 312.79688 349.075Q312.01562 348.575 311.57812 347.66876Q311.15625 346.7469 311.14062 345.52814L311.14062 344.91876Q311.14062 343.6844 311.5625 342.7469Q312.0 341.8094 312.78125 341.3094Q313.5625 340.79376 314.5625 340.79376Q315.59375 340.79376 316.375 341.29376Q317.15625 341.79376 317.57812 342.73126Q318.0 343.66876 318.0 344.91876L318.0 345.46564ZM316.875 344.90314Q316.875 343.40314 316.28125 342.59064Q315.6875 341.7625 314.5625 341.7625Q313.5 341.7625 312.89062 342.575Q312.28125 343.3875 312.26562 344.825L312.26562 345.46564Q312.26562 346.91876 312.875 347.7625Q313.48438 348.60626 314.57812 348.60626Q315.67188 348.60626 316.26562 347.825Q316.85938 347.02814 316.875 345.54376L316.875 344.90314ZM323.78125 346.59064L324.96875 346.59064L324.96875 347.46564L323.78125 347.46564L323.78125 349.45L322.70312 349.45L322.70312 347.46564L318.8125 347.46564L318.8125 346.825L322.625 340.91876L323.78125 340.91876L323.78125 346.59064ZM320.04688 346.59064L322.70312 346.59064L322.70312 342.40314L322.5625 342.6375L320.04688 346.59064Z" fill-rule="nonzero"/><path fill="#f3f3f3" d="M389.68707 345.46564Q389.68707 346.7 389.29645 347.59064Q388.90582 348.48126 388.2027 348.98126L389.71832 350.1844L388.9527 350.8875L387.15582 349.46564Q386.73395 349.575 386.2652 349.575Q385.2652 349.575 384.48395 349.075Q383.7027 348.575 383.2652 347.66876Q382.84332 346.7469 382.8277 345.52814L382.8277 344.91876Q382.8277 343.6844 383.24957 342.7469Q383.68707 341.8094 384.46832 341.3094Q385.24957 340.79376 386.24957 340.79376Q387.28082 340.79376 388.06207 341.29376Q388.84332 341.79376 389.2652 342.73126Q389.68707 343.66876 389.68707 344.91876L389.68707 345.46564ZM388.56207 344.90314Q388.56207 343.40314 387.96832 342.59064Q387.37457 341.7625 386.24957 341.7625Q385.18707 341.7625 384.5777 342.575Q383.96832 343.3875 383.9527 344.825L383.9527 345.46564Q383.9527 346.91876 384.56207 347.7625Q385.17145 348.60626 386.2652 348.60626Q387.35895 348.60626 387.9527 347.825Q388.54645 347.02814 388.56207 345.54376L388.56207 344.90314ZM391.3902 345.16876L391.8277 340.91876L396.2027 340.91876L396.2027 341.91876L392.74957 341.91876L392.48395 344.2469Q393.12457 343.8719 393.92145 343.8719Q395.0777 343.8719 395.7652 344.65314Q396.4527 345.41876 396.4527 346.73126Q396.4527 348.04376 395.73395 348.8094Q395.03082 349.575 393.74957 349.575Q392.62457 349.575 391.90582 348.95Q391.18707 348.3094 391.09332 347.2L392.10895 347.2Q392.21832 347.9344 392.6402 348.3094Q393.06207 348.6844 393.74957 348.6844Q394.49957 348.6844 394.93707 348.16876Q395.37457 347.65314 395.37457 346.7469Q395.37457 345.8875 394.90582 345.3719Q394.43707 344.85626 393.65582 344.85626Q392.9527 344.85626 392.54645 345.15314L392.2652 345.3875L391.3902 345.16876Z" fill-rule="nonzero"/><path fill="#f3f3f3" d="M461.37415 345.46564Q461.37415 346.7 460.98352 347.59064Q460.5929 348.48126 459.88977 348.98126L461.4054 350.1844L460.63977 350.8875L458.8429 349.46564Q458.42102 349.575 457.95227 349.575Q456.95227 349.575 456.17102 349.075Q455.38977 348.575 454.95227 347.66876Q454.5304 346.7469 454.51477 345.52814L454.51477 344.91876Q454.51477 343.6844 454.93665 342.7469Q455.37415 341.8094 456.1554 341.3094Q456.93665 340.79376 457.93665 340.79376Q458.9679 340.79376 459.74915 341.29376Q460.5304 341.79376 460.95227 342.73126Q461.37415 343.66876 461.37415 344.91876L461.37415 345.46564ZM460.24915 344.90314Q460.24915 343.40314 459.6554 342.59064Q459.06165 341.7625 457.93665 341.7625Q456.87415 341.7625 456.26477 342.575Q455.6554 343.3875 455.63977 344.825L455.63977 345.46564Q455.63977 346.91876 456.24915 347.7625Q456.85852 348.60626 457.95227 348.60626Q459.04602 348.60626 459.63977 347.825Q460.23352 347.02814 460.24915 345.54376L460.24915 344.90314ZM466.8429 340.91876L466.8429 341.825L466.63977 341.825Q465.37415 341.85626 464.62415 342.59064Q463.87415 343.3094 463.74915 344.6219Q464.43665 343.85626 465.5929 343.85626Q466.70227 343.85626 467.37415 344.6375Q468.04602 345.41876 468.04602 346.66876Q468.04602 347.98126 467.32727 348.77814Q466.60852 349.575 465.38977 349.575Q464.17102 349.575 463.4054 348.6375Q462.6554 347.6844 462.6554 346.2L462.6554 345.79376Q462.6554 343.4344 463.6554 342.1844Q464.6554 340.9344 466.63977 340.91876L466.8429 340.91876ZM465.42102 344.7625Q464.85852 344.7625 464.38977 345.09064Q463.92102 345.41876 463.73352 345.9344L463.73352 346.325Q463.73352 347.3875 464.20227 348.02814Q464.68665 348.66876 465.38977 348.66876Q466.12415 348.66876 466.54602 348.1375Q466.9679 347.59064 466.9679 346.71564Q466.9679 345.84064 466.54602 345.3094Q466.12415 344.7625 465.42102 344.7625Z" fill-rule="nonzero"/><path fill="#f3f3f3" d="M533.0612 345.46564Q533.0612 346.7 532.6706 347.59064Q532.27997 348.48126 531.57684 348.98126L533.09247 350.1844L532.32684 350.8875L530.52997 349.46564Q530.1081 349.575 529.63934 349.575Q528.63934 349.575 527.8581 349.075Q527.07684 348.575 526.63934 347.66876Q526.21747 346.7469 526.20184 345.52814L526.20184 344.91876Q526.20184 343.6844 526.6237 342.7469Q527.0612 341.8094 527.84247 341.3094Q528.6237 340.79376 529.6237 340.79376Q530.65497 340.79376 531.4362 341.29376Q532.21747 341.79376 532.63934 342.73126Q533.0612 343.66876 533.0612 344.91876L533.0612 345.46564ZM531.9362 344.90314Q531.9362 343.40314 531.34247 342.59064Q530.7487 341.7625 529.6237 341.7625Q528.5612 341.7625 527.95184 342.575Q527.34247 343.3875 527.32684 344.825L527.32684 345.46564Q527.32684 346.91876 527.9362 347.7625Q528.5456 348.60626 529.63934 348.60626Q530.7331 348.60626 531.32684 347.825Q531.9206 347.02814 531.9362 345.54376L531.9362 344.90314ZM539.77997 341.52814L536.2487 349.45L535.1081 349.45L538.6237 341.8094L534.01434 341.8094L534.01434 340.91876L539.77997 340.91876L539.77997 341.52814Z" fill-rule="nonzero"/><path fill="#e4b888" d="M186.0 22.05C186.0 21.497715 186.44771 21.05 187.0 21.05L197.0 21.05C197.55229 21.05 198.0 21.497715 198.0 22.05L198.0 32.05C198.0 32.602283 197.55229 33.05 197.0 33.05L187.0 33.05C186.44771 33.05 186.0 32.602283 186.0 32.05Z" fill-rule="nonzero"/><path fill="#00ffff" d="M214.8125 31.55L213.48438 31.55L208.46875 23.878124L208.46875 31.55L207.15625 31.55L207.15625 21.596874L208.46875 21.596874L213.5 29.3L213.5 21.596874L214.8125 21.596874L214.8125 31.55ZM220.03125 31.690624Q218.51562 31.690624 217.57812 30.70625Q216.64062 29.70625 216.64062 28.05L216.64062 27.83125Q216.64062 26.721874 217.0625 25.8625Q217.48438 24.9875 218.23438 24.503124Q218.98438 24.01875 219.875 24.01875Q221.3125 24.01875 222.10938 24.971874Q222.90625 25.909374 222.90625 27.690624L222.90625 28.20625L217.90625 28.20625Q217.92188 29.3 218.53125 29.9875Q219.15625 30.659374 220.09375 30.659374Q220.76562 30.659374 221.21875 30.39375Q221.6875 30.1125 222.04688 29.659374L222.8125 30.253124Q221.89062 31.690624 220.03125 31.690624ZM219.875 25.05Q219.10938 25.05 218.57812 25.6125Q218.0625 26.175 217.9375 27.175L221.64062 27.175L221.64062 27.08125Q221.59375 26.1125 221.125 25.58125Q220.65625 25.05 219.875 25.05ZM225.67188 22.3625L225.67188 24.159374L227.04688 24.159374L227.04688 25.128124L225.67188 25.128124L225.67188 29.721874Q225.67188 30.159374 225.85938 30.39375Q226.04688 30.6125 226.48438 30.6125Q226.70312 30.6125 227.09375 30.51875L227.09375 31.55Q226.59375 31.690624 226.125 31.690624Q225.26562 31.690624 224.82812 31.175Q224.40625 30.659374 224.40625 29.721874L224.40625 25.128124L223.0625 25.128124L223.0625 24.159374L224.40625 24.159374L224.40625 22.3625L225.67188 22.3625ZM233.53125 30.815624Q232.78125 31.690624 231.35938 31.690624Q230.17188 31.690624 229.54688 31.003124Q228.9375 30.315624 228.9375 28.971874L228.9375 24.159374L230.1875 24.159374L230.1875 28.925Q230.1875 30.6125 231.5625 30.6125Q233.01562 30.6125 233.48438 29.534374L233.48438 24.159374L234.75 24.159374L234.75 31.55L233.54688 31.55L233.53125 30.815624ZM240.53125 25.284374Q240.25 25.2375 239.90625 25.2375Q238.67188 25.2375 238.21875 26.3L238.21875 31.55L236.95312 31.55L236.95312 24.159374L238.1875 24.159374L238.20312 25.003124Q238.82812 24.01875 239.96875 24.01875Q240.34375 24.01875 240.53125 24.1125L240.53125 25.284374ZM246.53125 31.55Q246.42188 31.33125 246.34375 30.76875Q245.46875 31.690624 244.23438 31.690624Q243.14062 31.690624 242.4375 31.08125Q241.75 30.45625 241.75 29.503124Q241.75 28.346874 242.625 27.70625Q243.5 27.065624 245.09375 27.065624L246.32812 27.065624L246.32812 26.4875Q246.32812 25.815624 245.92188 25.425Q245.53125 25.034374 244.76562 25.034374Q244.07812 25.034374 243.625 25.378124Q243.17188 25.721874 243.17188 26.20625L241.89062 26.20625Q241.89062 25.64375 242.28125 25.128124Q242.6875 24.6125 243.35938 24.315624Q244.03125 24.01875 244.82812 24.01875Q246.10938 24.01875 246.82812 24.659374Q247.5625 25.3 247.59375 26.409374L247.59375 29.815624Q247.59375 30.83125 247.84375 31.440624L247.84375 31.55L246.53125 31.55ZM244.42188 30.58125Q245.01562 30.58125 245.54688 30.284374Q246.09375 29.971874 246.32812 29.471874L246.32812 27.95625L245.32812 27.95625Q243.01562 27.95625 243.01562 29.315624Q243.01562 29.909374 243.40625 30.253124Q243.79688 30.58125 244.42188 30.58125ZM251.32812 31.55L250.0625 31.55L250.0625 21.05L251.32812 21.05L251.32812 31.55Z" fill-rule="nonzero"/><path fill="#e39191" d="M268.0 22.05C268.0 21.497715 268.44772 21.05 269.0 21.05L279.0 21.05C279.55228 21.05 280.0 21.497715 280.0 22.05L280.0 32.05C280.0 32.602283 279.55228 33.05 279.0 33.05L269.0 33.05C268.44772 33.05 268.0 32.602283 268.0 32.05Z" fill-rule="nonzero"/><path fill="#00ffff" d="M289.15625 31.55L289.15625 21.596874L291.96875 21.596874Q293.26562 21.596874 294.26562 22.175Q295.26562 22.7375 295.79688 23.8Q296.34375 24.8625 296.35938 26.2375L296.35938 26.878124Q296.35938 28.284374 295.8125 29.346874Q295.26562 30.39375 294.25 30.971874Q293.25 31.534374 291.90625 31.55L289.15625 31.55ZM290.46875 22.675L290.46875 30.471874L291.84375 30.471874Q293.35938 30.471874 294.20312 29.534374Q295.0625 28.596874 295.0625 26.846874L295.0625 26.26875Q295.0625 24.565624 294.26562 23.628124Q293.46875 22.690624 292.0 22.675L290.46875 22.675ZM299.32812 31.55L298.0625 31.55L298.0625 24.159374L299.32812 24.159374L299.32812 31.55ZM297.96875 22.190624Q297.96875 21.878124 298.15625 21.675Q298.34375 21.45625 298.70312 21.45625Q299.07812 21.45625 299.26562 21.675Q299.46875 21.878124 299.46875 22.190624Q299.46875 22.503124 299.26562 22.70625Q299.07812 22.909374 298.70312 22.909374Q298.34375 22.909374 298.15625 22.70625Q297.96875 22.503124 297.96875 22.190624ZM305.26562 29.58125Q305.26562 29.08125 304.875 28.8Q304.48438 28.503124 303.53125 28.3Q302.57812 28.096874 302.0 27.815624Q301.4375 27.51875 301.17188 27.128124Q300.90625 26.7375 300.90625 26.190624Q300.90625 25.26875 301.67188 24.64375Q302.4375 24.01875 303.64062 24.01875Q304.89062 24.01875 305.67188 24.675Q306.45312 25.315624 306.45312 26.33125L305.1875 26.33125Q305.1875 25.8 304.75 25.425Q304.3125 25.05 303.64062 25.05Q302.95312 25.05 302.5625 25.3625Q302.17188 25.659374 302.17188 26.14375Q302.17188 26.596874 302.53125 26.83125Q302.89062 27.065624 303.82812 27.284374Q304.78125 27.4875 305.375 27.784374Q305.96875 28.08125 306.25 28.503124Q306.53125 28.909374 306.53125 29.503124Q306.53125 30.4875 305.73438 31.096874Q304.9375 31.690624 303.67188 31.690624Q302.79688 31.690624 302.10938 31.378124Q301.42188 31.05 301.03125 30.4875Q300.65625 29.925 300.65625 29.26875L301.92188 29.26875Q301.95312 29.909374 302.42188 30.284374Q302.90625 30.659374 303.67188 30.659374Q304.39062 30.659374 304.82812 30.3625Q305.26562 30.065624 305.26562 29.58125ZM312.53125 31.55Q312.42188 31.33125 312.34375 30.76875Q311.46875 31.690624 310.23438 31.690624Q309.14062 31.690624 308.4375 31.08125Q307.75 30.45625 307.75 29.503124Q307.75 28.346874 308.625 27.70625Q309.5 27.065624 311.09375 27.065624L312.32812 27.065624L312.32812 26.4875Q312.32812 25.815624 311.92188 25.425Q311.53125 25.034374 310.76562 25.034374Q310.07812 25.034374 309.625 25.378124Q309.17188 25.721874 309.17188 26.20625L307.89062 26.20625Q307.89062 25.64375 308.28125 25.128124Q308.6875 24.6125 309.35938 24.315624Q310.03125 24.01875 310.82812 24.01875Q312.10938 24.01875 312.82812 24.659374Q313.5625 25.3 313.59375 26.409374L313.59375 29.815624Q313.59375 30.83125 313.84375 31.440624L313.84375 31.55L312.53125 31.55ZM310.42188 30.58125Q311.01562 30.58125 311.54688 30.284374Q312.09375 29.971874 312.32812 29.471874L312.32812 27.95625L311.32812 27.95625Q309.01562 27.95625 309.01562 29.315624Q309.01562 29.909374 309.40625 30.253124Q309.79688 30.58125 310.42188 30.58125ZM315.65625 27.784374Q315.65625 26.065624 316.45312 25.05Q317.25 24.01875 318.57812 24.01875Q319.92188 24.01875 320.6875 24.971874L320.75 24.159374L321.90625 24.159374L321.90625 31.378124Q321.90625 32.815624 321.04688 33.628124Q320.20312 34.45625 318.76562 34.45625Q317.96875 34.45625 317.20312 34.1125Q316.4375 33.784374 316.03125 33.190624L316.6875 32.425Q317.5 33.425 318.67188 33.425Q319.59375 33.425 320.10938 32.909374Q320.64062 32.39375 320.64062 31.440624L320.64062 30.815624Q319.875 31.690624 318.5625 31.690624Q317.26562 31.690624 316.45312 30.64375Q315.65625 29.596874 315.65625 27.784374ZM316.92188 27.940624Q316.92188 29.190624 317.4375 29.909374Q317.95312 30.6125 318.875 30.6125Q320.07812 30.6125 320.64062 29.51875L320.64062 26.14375Q320.04688 25.096874 318.89062 25.096874Q317.96875 25.096874 317.4375 25.815624Q316.92188 26.51875 316.92188 27.940624ZM327.53125 25.284374Q327.25 25.2375 326.90625 25.2375Q325.67188 25.2375 325.21875 26.3L325.21875 31.55L323.95312 31.55L323.95312 24.159374L325.1875 24.159374L325.20312 25.003124Q325.82812 24.01875 326.96875 24.01875Q327.34375 24.01875 327.53125 24.1125L327.53125 25.284374ZM332.03125 31.690624Q330.51562 31.690624 329.57812 30.70625Q328.64062 29.70625 328.64062 28.05L328.64062 27.83125Q328.64062 26.721874 329.0625 25.8625Q329.48438 24.9875 330.23438 24.503124Q330.98438 24.01875 331.875 24.01875Q333.3125 24.01875 334.10938 24.971874Q334.90625 25.909374 334.90625 27.690624L334.90625 28.20625L329.90625 28.20625Q329.92188 29.3 330.53125 29.9875Q331.15625 30.659374 332.09375 30.659374Q332.76562 30.659374 333.21875 30.39375Q333.6875 30.1125 334.04688 29.659374L334.8125 30.253124Q333.89062 31.690624 332.03125 31.690624ZM331.875 25.05Q331.10938 25.05 330.57812 25.6125Q330.0625 26.175 329.9375 27.175L333.64062 27.175L333.64062 27.08125Q333.59375 26.1125 333.125 25.58125Q332.65625 25.05 331.875 25.05ZM339.03125 31.690624Q337.51562 31.690624 336.57812 30.70625Q335.64062 29.70625 335.64062 28.05L335.64062 27.83125Q335.64062 26.721874 336.0625 25.8625Q336.48438 24.9875 337.23438 24.503124Q337.98438 24.01875 338.875 24.01875Q340.3125 24.01875 341.10938 24.971874Q341.90625 25.909374 341.90625 27.690624L341.90625 28.20625L336.90625 28.20625Q336.92188 29.3 337.53125 29.9875Q338.15625 30.659374 339.09375 30.659374Q339.76562 30.659374 340.21875 30.39375Q340.6875 30.1125 341.04688 29.659374L341.8125 30.253124Q340.89062 31.690624 339.03125 31.690624ZM338.875 25.05Q338.10938 25.05 337.57812 25.6125Q337.0625 26.175 336.9375 27.175L340.64062 27.175L340.64062 27.08125Q340.59375 26.1125 340.125 25.58125Q339.65625 25.05 338.875 25.05Z" fill-rule="nonzero"/><path fill="#c9daf8" d="M358.0 22.05C358.0 21.497715 358.44772 21.05 359.0 21.05L369.0 21.05C369.55228 21.05 370.0 21.497715 370.0 22.05L370.0 32.05C370.0 32.602283 369.55228 33.05 369.0 33.05L359.0 33.05C358.44772 33.05 358.0 32.602283 358.0 32.05Z" fill-rule="nonzero"/><path fill="#00ffff" d="M384.65625 28.95625L380.48438 28.95625L379.54688 31.55L378.1875 31.55L382.0 21.596874L383.14062 21.596874L386.95312 31.55L385.60938 31.55L384.65625 28.95625ZM380.875 27.878124L384.26562 27.878124L382.5625 23.221874L380.875 27.878124ZM387.65625 27.784374Q387.65625 26.065624 388.45312 25.05Q389.25 24.01875 390.57812 24.01875Q391.92188 24.01875 392.6875 24.971874L392.75 24.159374L393.90625 24.159374L393.90625 31.378124Q393.90625 32.815624 393.04688 33.628124Q392.20312 34.45625 390.76562 34.45625Q389.96875 34.45625 389.20312 34.1125Q388.4375 33.784374 388.03125 33.190624L388.6875 32.425Q389.5 33.425 390.67188 33.425Q391.59375 33.425 392.10938 32.909374Q392.64062 32.39375 392.64062 31.440624L392.64062 30.815624Q391.875 31.690624 390.5625 31.690624Q389.26562 31.690624 388.45312 30.64375Q387.65625 29.596874 387.65625 27.784374ZM388.92188 27.940624Q388.92188 29.190624 389.4375 29.909374Q389.95312 30.6125 390.875 30.6125Q392.07812 30.6125 392.64062 29.51875L392.64062 26.14375Q392.04688 25.096874 390.89062 25.096874Q389.96875 25.096874 389.4375 25.815624Q388.92188 26.51875 388.92188 27.940624ZM399.53125 25.284374Q399.25 25.2375 398.90625 25.2375Q397.67188 25.2375 397.21875 26.3L397.21875 31.55L395.95312 31.55L395.95312 24.159374L397.1875 24.159374L397.20312 25.003124Q397.82812 24.01875 398.96875 24.01875Q399.34375 24.01875 399.53125 24.1125L399.53125 25.284374ZM404.03125 31.690624Q402.51562 31.690624 401.57812 30.70625Q400.64062 29.70625 400.64062 28.05L400.64062 27.83125Q400.64062 26.721874 401.0625 25.8625Q401.48438 24.9875 402.23438 24.503124Q402.98438 24.01875 403.875 24.01875Q405.3125 24.01875 406.10938 24.971874Q406.90625 25.909374 406.90625 27.690624L406.90625 28.20625L401.90625 28.20625Q401.92188 29.3 402.53125 29.9875Q403.15625 30.659374 404.09375 30.659374Q404.76562 30.659374 405.21875 30.39375Q405.6875 30.1125 406.04688 29.659374L406.8125 30.253124Q405.89062 31.690624 404.03125 31.690624ZM403.875 25.05Q403.10938 25.05 402.57812 25.6125Q402.0625 26.175 401.9375 27.175L405.64062 27.175L405.64062 27.08125Q405.59375 26.1125 405.125 25.58125Q404.65625 25.05 403.875 25.05ZM411.03125 31.690624Q409.51562 31.690624 408.57812 30.70625Q407.64062 29.70625 407.64062 28.05L407.64062 27.83125Q407.64062 26.721874 408.0625 25.8625Q408.48438 24.9875 409.23438 24.503124Q409.98438 24.01875 410.875 24.01875Q412.3125 24.01875 413.10938 24.971874Q413.90625 25.909374 413.90625 27.690624L413.90625 28.20625L408.90625 28.20625Q408.92188 29.3 409.53125 29.9875Q410.15625 30.659374 411.09375 30.659374Q411.76562 30.659374 412.21875 30.39375Q412.6875 30.1125 413.04688 29.659374L413.8125 30.253124Q412.89062 31.690624 411.03125 31.690624ZM410.875 25.05Q410.10938 25.05 409.57812 25.6125Q409.0625 26.175 408.9375 27.175L412.64062 27.175L412.64062 27.08125Q412.59375 26.1125 412.125 25.58125Q411.65625 25.05 410.875 25.05Z" fill-rule="nonzero"/></svg>